<mxfile host="Electron" agent="Mozilla/5.0 (X11; Linux x86_64) AppleWebKit/537.36 (KHTML, like Gecko) draw.io/28.1.2 Chrome/138.0.7204.251 Electron/37.5.1 Safari/537.36" version="28.1.2">
  <diagram name="Page-1" id="7SYIQmIB46i4SN8NfS9q">
    <mxGraphModel dx="815" dy="480" grid="1" gridSize="10" guides="1" tooltips="1" connect="1" arrows="1" fold="1" page="1" pageScale="1" pageWidth="850" pageHeight="1100" math="0" shadow="0">
      <root>
        <mxCell id="0" />
        <mxCell id="1" parent="0" />
        <mxCell id="9Bcks7w4tn6B5syk6pne-3" value="" style="rounded=0;whiteSpace=wrap;html=1;fillColor=#FFFFFF;" vertex="1" parent="1">
          <mxGeometry x="120" y="240" width="640" height="240" as="geometry" />
        </mxCell>
        <mxCell id="9Bcks7w4tn6B5syk6pne-1" value="" style="shape=mxgraph.cisco.computers_and_peripherals.pc;html=1;pointerEvents=1;dashed=0;fillColor=#036897;strokeColor=#000000;strokeWidth=2;verticalLabelPosition=bottom;verticalAlign=top;align=center;outlineConnect=0;perimeterSpacing=3;" vertex="1" parent="1">
          <mxGeometry x="170" y="310" width="90" height="90" as="geometry" />
        </mxCell>
        <mxCell id="9Bcks7w4tn6B5syk6pne-2" value="" style="shape=mxgraph.cisco.computers_and_peripherals.pc;html=1;pointerEvents=1;dashed=0;fillColor=#036897;strokeColor=#000000;strokeWidth=2;verticalLabelPosition=bottom;verticalAlign=top;align=center;outlineConnect=0;perimeterSpacing=3;" vertex="1" parent="1">
          <mxGeometry x="630" y="310" width="90" height="90" as="geometry" />
        </mxCell>
        <mxCell id="9Bcks7w4tn6B5syk6pne-4" value="&lt;font style=&quot;font-size: 15px;&quot;&gt;PC1&lt;/font&gt;" style="text;html=1;align=center;verticalAlign=middle;whiteSpace=wrap;rounded=0;" vertex="1" parent="1">
          <mxGeometry x="190" y="325" width="40" height="30" as="geometry" />
        </mxCell>
        <mxCell id="9Bcks7w4tn6B5syk6pne-5" value="&lt;font style=&quot;font-size: 15px;&quot;&gt;PC2&lt;/font&gt;" style="text;html=1;align=center;verticalAlign=middle;whiteSpace=wrap;rounded=0;" vertex="1" parent="1">
          <mxGeometry x="650" y="325" width="40" height="30" as="geometry" />
        </mxCell>
        <mxCell id="9Bcks7w4tn6B5syk6pne-6" value="" style="endArrow=none;html=1;rounded=0;strokeWidth=4;strokeColor=#000000;entryX=0.16;entryY=0.5;entryDx=0;entryDy=0;entryPerimeter=0;exitX=0.83;exitY=0.5;exitDx=0;exitDy=0;exitPerimeter=0;" edge="1" parent="1" source="9Bcks7w4tn6B5syk6pne-1" target="9Bcks7w4tn6B5syk6pne-2">
          <mxGeometry width="50" height="50" relative="1" as="geometry">
            <mxPoint x="400" y="460" as="sourcePoint" />
            <mxPoint x="450" y="410" as="targetPoint" />
          </mxGeometry>
        </mxCell>
        <mxCell id="9Bcks7w4tn6B5syk6pne-7" value="&lt;font style=&quot;color: rgb(0, 0, 0);&quot;&gt;eth1&lt;/font&gt;" style="text;html=1;align=center;verticalAlign=middle;whiteSpace=wrap;rounded=0;dashed=1;perimeterSpacing=1;strokeColor=#000000;" vertex="1" parent="1">
          <mxGeometry x="260" y="355" width="30" height="30" as="geometry" />
        </mxCell>
        <mxCell id="9Bcks7w4tn6B5syk6pne-8" value="&lt;font style=&quot;color: rgb(0, 0, 0);&quot;&gt;eth1&lt;/font&gt;" style="text;html=1;align=center;verticalAlign=middle;whiteSpace=wrap;rounded=0;dashed=1;perimeterSpacing=1;strokeColor=#000000;" vertex="1" parent="1">
          <mxGeometry x="600" y="355" width="30" height="30" as="geometry" />
        </mxCell>
        <mxCell id="9Bcks7w4tn6B5syk6pne-9" value="&lt;font style=&quot;color: rgb(0, 0, 0);&quot;&gt;.1&lt;/font&gt;" style="text;html=1;align=center;verticalAlign=middle;whiteSpace=wrap;rounded=0;dashed=1;perimeterSpacing=1;strokeColor=none;dashPattern=1 4;" vertex="1" parent="1">
          <mxGeometry x="250" y="330" width="20" height="20" as="geometry" />
        </mxCell>
        <mxCell id="9Bcks7w4tn6B5syk6pne-10" value="&lt;font style=&quot;color: rgb(0, 0, 0);&quot;&gt;.2&lt;/font&gt;" style="text;html=1;align=center;verticalAlign=middle;whiteSpace=wrap;rounded=0;dashed=1;perimeterSpacing=1;strokeColor=none;dashPattern=1 4;" vertex="1" parent="1">
          <mxGeometry x="620" y="330" width="20" height="20" as="geometry" />
        </mxCell>
        <mxCell id="9Bcks7w4tn6B5syk6pne-11" value="&lt;font style=&quot;color: rgb(0, 0, 0);&quot;&gt;10.0.12.0/24&lt;/font&gt;" style="text;html=1;align=center;verticalAlign=middle;whiteSpace=wrap;rounded=0;dashed=1;perimeterSpacing=1;strokeColor=none;dashPattern=1 4;" vertex="1" parent="1">
          <mxGeometry x="405" y="330" width="70" height="20" as="geometry" />
        </mxCell>
      </root>
    </mxGraphModel>
  </diagram>
</mxfile>
